<svg width="30" height="27" viewBox="0 0 30 27" fill="none" xmlns="http://www.w3.org/2000/svg">
<path d="M25.78 7.81985H11.7739C10.9372 7.81985 10.3065 7.05458 10.3065 6.18672C10.3065 5.31887 10.9372 4.5536 11.7739 4.5536H27.7826C28.279 4.5536 28.7156 4.85278 28.9653 5.2538C29.2536 5.66796 29.3188 6.22858 29.1795 6.7051C29.1793 6.7056 29.1792 6.70611 29.179 6.70662L25.9234 18.3564L25.9225 18.3595C25.6552 19.2705 24.9352 19.9222 24.0391 19.9222H11.4696C10.6235 19.9222 9.83247 19.3266 9.55784 18.4699C9.55774 18.4696 9.55765 18.4693 9.55755 18.469L4.80598 4.01625H2.21739C1.38073 4.01625 0.75 3.25098 0.75 2.38313C0.75 1.51527 1.38073 0.75 2.21739 0.75H5.83913C6.48703 0.75 7.02419 1.2228 7.23296 1.85498L25.78 7.81985ZM25.78 7.81985L23.3316 16.6559H12.1371L7.23305 1.85525L25.78 7.81985ZM12.0783 21.2548C11.484 21.2548 10.8999 21.5317 10.4906 21.9966C10.0823 22.4605 9.85 23.1083 9.85 23.7524C9.85 24.3965 10.0823 25.0443 10.4906 25.5082C10.8999 25.9732 11.484 26.25 12.0783 26.25C12.6725 26.25 13.2567 25.9732 13.6659 25.5082C14.0742 25.0443 14.3065 24.3965 14.3065 23.7524C14.3065 23.1083 14.0742 22.4605 13.6659 21.9966C13.2567 21.5317 12.6725 21.2548 12.0783 21.2548ZM23.0043 21.2548C22.4101 21.2548 21.8259 21.5317 21.4167 21.9966C21.0084 22.4605 20.7761 23.1083 20.7761 23.7524C20.7761 24.3965 21.0084 25.0443 21.4167 25.5082C21.8259 25.9732 22.4101 26.25 23.0043 26.25C23.5986 26.25 24.1827 25.9732 24.592 25.5082C25.0003 25.0443 25.2326 24.3965 25.2326 23.7524C25.2326 23.1083 25.0003 22.4605 24.592 21.9966C24.1827 21.5317 23.5986 21.2548 23.0043 21.2548Z" fill="#F4EFF0" stroke="#F4EFF0" stroke-width="0.5"/>
</svg>
