<svg width="27" height="27" viewBox="0 0 27 27" fill="none" xmlns="http://www.w3.org/2000/svg">
<path d="M13.4633 15.4385C17.4059 15.4385 20.5349 12.0857 20.5349 8.03846C20.5349 3.99411 17.4087 0.6 13.4633 0.6C9.52079 0.6 6.39179 3.95273 6.39179 8C6.39179 12.0444 9.51803 15.4385 13.4633 15.4385ZM13.4633 3.24615C15.9371 3.24615 17.9754 5.35643 17.9754 8C17.9754 10.6436 15.9371 12.7538 13.4633 12.7538C10.9857 12.7538 8.95132 10.678 8.95132 8.03846C8.95132 5.39093 10.9933 3.24615 13.4633 3.24615ZM1.87977 26.4H25.1202C25.8356 26.4 26.4 25.7795 26.4 25.0769C26.4 20.0282 22.4632 15.8692 17.6056 15.8692H9.39443C4.53685 15.8692 0.6 20.0282 0.6 25.0769C0.6 25.7795 1.16441 26.4 1.87977 26.4ZM9.39443 18.5154H17.6056C20.6098 18.5154 23.1089 20.7376 23.6975 23.7538H3.30245C3.89112 20.7376 6.39019 18.5154 9.39443 18.5154Z" fill="#F4EFF0" stroke="#F4EFF0" stroke-width="0.8"/>
</svg>
